<svg width="20" height="20" viewBox="0 0 20 20" fill="none" xmlns="http://www.w3.org/2000/svg">
    <path fill-rule="evenodd" clip-rule="evenodd" d="M10 18C14.4183 18 18 14.4183 18 10C18 5.58172 14.4183 2 10 2C5.58172 2 2 5.58172 2 10C2 14.4183 5.58172 18 10 18ZM10 20C15.5228 20 20 15.5228 20 10C20 4.47715 15.5228 0 10 0C4.47715 0 0 4.47715 0 10C0 15.5228 4.47715 20 10 20Z" fill="white"/>
    <path fill-rule="evenodd" clip-rule="evenodd" d="M5.15201 8.97001C5.44472 8.50168 6.06167 8.3593 6.53001 8.65201L10 10.8208L13.47 8.65201C13.9383 8.3593 14.5553 8.50168 14.848 8.97001C15.1407 9.43835 14.9983 10.0553 14.53 10.348L10.53 12.848C10.2057 13.0507 9.79428 13.0507 9.47001 12.848L5.47001 10.348C5.00168 10.0553 4.8593 9.43835 5.15201 8.97001Z" fill="white"/>
</svg>
