<svg width="15" height="15" viewBox="0 0 15 15" fill="none" xmlns="http://www.w3.org/2000/svg">
    <path d="M0.298302 0.298304C0.696039 -0.0994347 1.3409 -0.0994347 1.73863 0.298304L14.7016 13.2614C15.0994 13.6591 15.0994 14.304 14.7016 14.7017C14.3039 15.0994 13.659 15.0994 13.2613 14.7017L0.298303 1.73864C-0.0994341 1.3409 -0.0994343 0.696043 0.298302 0.298304Z" fill="white"/>
    <path d="M14.7017 0.298304C14.304 -0.0994347 13.6591 -0.0994347 13.2614 0.298304L0.298379 13.2614C-0.0993579 13.6591 -0.0993579 14.304 0.298379 14.7017C0.696115 15.0994 1.34097 15.0994 1.73871 14.7017L14.7017 1.73864C15.0994 1.3409 15.0994 0.696043 14.7017 0.298304Z" fill="white"/>
</svg>
