<svg width="26" height="25" viewBox="0 0 26 25" fill="none" xmlns="http://www.w3.org/2000/svg">
    <path d="M24.9756 7.35007C24.917 6.02172 24.7022 5.1085 24.3945 4.31717C24.0771 3.4772 23.5887 2.72518 22.9488 2.10002C22.3237 1.46513 21.5667 0.971793 20.7365 0.659308C19.9406 0.351593 19.0321 0.136784 17.7038 0.0782166C16.3655 0.0146894 15.9406 0 12.5464 0C9.15222 0 8.72737 0.0146894 7.39407 0.0732565C6.06572 0.131824 5.1525 0.346824 4.36137 0.654348C3.52121 0.971793 2.76918 1.46017 2.14402 2.10002C1.50913 2.72518 1.01599 3.48216 0.703314 4.3124C0.395599 5.1085 0.18079 6.01676 0.122223 7.34511C0.0586958 8.68338 0.0440063 9.10822 0.0440063 12.5024C0.0440063 15.8967 0.0586958 16.3215 0.117263 17.6548C0.17583 18.9832 0.39083 19.8964 0.698545 20.6877C1.01599 21.5277 1.50913 22.2797 2.14402 22.9049C2.76918 23.5398 3.52617 24.0331 4.35641 24.3456C5.1525 24.6533 6.06076 24.8681 7.3893 24.9267C8.72241 24.9854 9.14745 24.9999 12.5417 24.9999C15.9359 24.9999 16.3607 24.9854 17.694 24.9267C19.0224 24.8681 19.9356 24.6533 20.7267 24.3456C22.4069 23.696 23.7352 22.3677 24.3848 20.6877C24.6923 19.8916 24.9073 18.9832 24.9659 17.6548C25.0244 16.3215 25.0391 15.8967 25.0391 12.5024C25.0391 9.10822 25.0342 8.68338 24.9756 7.35007ZM22.7243 17.5571C22.6705 18.7781 22.4654 19.4374 22.2945 19.8769C21.8744 20.966 21.01 21.8304 19.9209 22.2505C19.4814 22.4214 18.8173 22.6265 17.6011 22.6801C16.2825 22.7389 15.887 22.7534 12.5514 22.7534C9.21575 22.7534 8.81532 22.7389 7.50147 22.6801C6.28053 22.6265 5.62122 22.4214 5.18168 22.2505C4.6397 22.0502 4.14637 21.7328 3.74593 21.3176C3.33082 20.9122 3.01337 20.4239 2.81306 19.8819C2.64213 19.4424 2.43705 18.7781 2.38344 17.5621C2.32468 16.2435 2.31019 15.8478 2.31019 12.5122C2.31019 9.17652 2.32468 8.77609 2.38344 7.46243C2.43705 6.24149 2.64213 5.58218 2.81306 5.14264C3.01337 4.60047 3.33082 4.10732 3.7509 3.7067C4.15609 3.29158 4.64447 2.97414 5.18664 2.77402C5.62618 2.60309 6.29045 2.39801 7.50643 2.34421C8.82505 2.28564 9.22071 2.27095 12.5562 2.27095C15.8968 2.27095 16.2922 2.28564 17.6061 2.34421C18.827 2.39801 19.4863 2.60309 19.9259 2.77402C20.4679 2.97414 20.9612 3.29158 21.3616 3.7067C21.7767 4.11209 22.0942 4.60047 22.2945 5.14264C22.4654 5.58218 22.6705 6.24626 22.7243 7.46243C22.7829 8.78105 22.7976 9.17652 22.7976 12.5122C22.7976 15.8478 22.7829 16.2385 22.7243 17.5571Z" fill="#C4C4C4"/>
    <path d="M12.5464 6.08016C9.00093 6.08016 6.12428 8.95662 6.12428 12.5023C6.12428 16.048 9.00093 18.9245 12.5464 18.9245C16.0921 18.9245 18.9686 16.048 18.9686 12.5023C18.9686 8.95662 16.0921 6.08016 12.5464 6.08016ZM12.5464 16.6682C10.2463 16.6682 8.38054 14.8026 8.38054 12.5023C8.38054 10.202 10.2463 8.33642 12.5464 8.33642C14.8468 8.33642 16.7123 10.202 16.7123 12.5023C16.7123 14.8026 14.8468 16.6682 12.5464 16.6682Z" fill="#C4C4C4"/>
    <path d="M20.7219 5.82636C20.7219 6.65431 20.0506 7.32564 19.2224 7.32564C18.3945 7.32564 17.7232 6.65431 17.7232 5.82636C17.7232 4.99822 18.3945 4.32708 19.2224 4.32708C20.0506 4.32708 20.7219 4.99822 20.7219 5.82636Z" fill="#C4C4C4"/>
</svg>
