<svg width="251" height="83" viewBox="0 0 251 83" fill="none" xmlns="http://www.w3.org/2000/svg">
    <path d="M194.476 11.8564L186.868 35.8156H192.996L194.264 30.5832H201.659L202.927 35.8156H209.267L201.872 11.8564H194.476ZM195.321 26.5583L198.068 15.8925L200.814 26.5583H195.321ZM229.742 19.1123C229.742 14.0813 226.148 11.8676 219.398 11.8676H211.158V35.8266H217.075V26.5583H219.398L224.47 35.8156H231.232L224.892 25.5522C228.261 24.1435 229.742 22.3322 229.742 19.1123ZM219.597 22.7348H217.061V15.8925H219.176C222.134 15.8925 223.612 16.8987 223.612 19.1123C223.612 21.7286 222.133 22.7348 219.597 22.7348ZM250.003 11.8564L249.369 16.2839H243.242V35.8156H237.325V16.2949H230.774V11.8676H250.003V11.8564Z" fill="#2D2D2D"/>
    <path d="M7.20751 52.9882C7.24272 53.6703 6.23312 54.5869 5.1883 54.8218C4.39002 55.0454 3.7326 54.8218 3.63868 54.3634C3.63868 54.3634 -2.86501 47.946 1.52557 28.2577C1.87776 27.1173 3.36867 26.2005 4.82437 26.2005C6.28009 26.2005 7.27793 26.8826 6.92575 28.0341C6.92575 28.0341 2.22994 42.4678 7.41882 52.3175C7.27793 52.7647 7.27793 52.7647 7.20751 52.9882ZM6.11572 24.3558C7.80621 24.3558 9.68455 22.9807 10.1893 21.382C10.6824 19.7832 9.64932 18.408 7.95883 18.408C6.26834 18.408 4.46046 19.5483 3.95566 21.1583C3.39215 22.9919 4.4135 24.3558 6.11572 24.3558ZM54.4003 40.6229C46.758 59.864 26.5542 59.4056 26.5542 59.4056C26.5542 59.4056 10.0367 60.3224 9.00365 47.9572C9.00365 47.9572 8.46363 44.9832 12.2203 42.2329C15.9769 39.4826 25.0398 34.4404 32.5532 25.0489C32.5532 25.0489 22.8093 27.5645 9.97804 36.9559C9.03887 37.6379 8.38145 37.4142 8.35797 36.7323C8.75711 33.0651 11.1755 23.6739 17.6792 13.6005C27.2939 -1.06785 37.8477 0.0837069 37.8477 0.0837069C37.8477 0.0837069 53.2147 0.54209 39.2329 20.6999C39.4794 20.6999 62.1132 21.1583 54.4003 40.6229ZM35.7697 20.9235C35.7697 20.9235 46.1827 6.03156 35.3823 6.48993C22.152 6.94833 13.3825 29.8564 13.3825 29.8564C25.3099 21.8404 35.7697 20.9235 35.7697 20.9235ZM36.8849 24.3558C29.1018 34.6639 19.6866 39.2478 14.9204 42.9038C12.1029 44.9609 12.9246 47.0292 12.9246 47.0292C14.6738 53.905 25.2042 54.3634 25.2042 54.3634C25.2042 54.3634 41.569 55.515 47.5798 41.5397C55.1634 24.8142 36.8849 24.3558 36.8849 24.3558ZM236.973 48.8738C234.414 49.3323 230.083 50.0144 227.746 52.0826C227.746 52.0826 203.257 38.8006 170.586 54.3746L170.446 54.8329C169.952 56.4318 169.531 57.8069 169.248 58.7237C167.475 64.4478 160.819 82.0902 152.93 82.5486C145.041 83.007 145.499 75.2143 148.728 69.4902C149.855 67.433 152.226 64.4478 155.56 61.474C155.56 61.474 155.947 61.0156 156.957 60.0988C159.293 58.0416 162.04 56.2081 165.269 54.3746C165.586 54.1509 166.137 53.9162 166.454 53.6925C166.524 53.469 167.969 49.5671 169.271 46.1347C169.271 46.1347 165.315 53.469 160.467 53.469C156.828 53.469 155.712 50.0366 155.701 46.1347C153.189 49.5671 148.434 55.5262 143.104 55.5262C137.775 55.5262 135.931 52.0938 136.025 47.0516C133.443 50.7187 129.076 56.2081 125.201 56.2081C119.32 56.4318 121.421 47.2751 121.421 47.2751C121.421 47.2751 116.69 55.5262 110.468 55.2913C107.076 55.2913 106.371 52.0826 106.536 48.4156C104.164 51.3894 99.7032 56.4316 96.0641 56.4316C89.2785 56.4316 91.0981 48.1807 91.0981 48.1807C91.0981 48.1807 87.1771 54.5981 80.8731 54.5981C77.7268 54.5981 76.729 52.3062 76.7877 49.7907C74.1698 52.7647 69.9552 56.2081 65.1185 56.2081C56.8775 56.2081 54.7173 49.1087 55.6799 43.6081C56.8891 38.1075 62.1015 29.8676 70.7536 30.0913C78.4312 30.3148 76.8816 40.8578 61.8668 44.7485C61.8668 44.7485 60.4344 52.541 66.1751 52.7647C69.7439 52.9882 73.0427 50.931 76.9754 46.8056C77.2338 45.2069 77.6563 43.8316 78.2434 42.6801C79.5464 39.2478 85.8857 28.9397 96.5688 29.6217C96.5688 29.6217 103.53 29.8454 100.995 36.4975C100.995 36.4975 99.9029 39.2478 96.7566 39.2478C93.8452 39.2478 94.7727 36.2738 94.8431 36.0391C94.8431 36.0391 96.8505 35.8154 97.5196 34.4404C98.1888 33.0651 98.0597 31.9248 96.1931 31.6901C92.6947 31.2316 86.7546 35.5807 84.2775 43.5969C82.0469 51.6131 86.2498 49.7795 86.2498 49.7795C86.2498 49.7795 88.0928 49.321 92.096 44.972C92.096 44.972 92.9413 42.2217 93.0821 41.7634C93.223 41.305 93.9156 40.6229 95.794 40.8466C97.6605 41.0701 98.177 41.7634 97.9657 42.4454C97.684 43.3622 93.9508 52.295 97.1322 52.977C100.138 53.4354 104.681 48.1695 106.876 44.9609C107.275 42.9038 107.592 41.0701 107.874 40.1535C108.625 36.9447 110.011 31.6788 110.633 31.2204C111.255 30.762 111.642 30.3036 113.262 30.5385C114.882 30.762 117.582 31.4552 116.843 33.0539C116.103 34.6528 108.766 51.3782 112.182 52.0603C115.188 52.5187 120.283 47.0179 121.574 45.1845C121.574 45.1845 122.548 39.6838 124.016 36.4863C125.495 33.2776 126.258 32.3608 127.643 32.5957C129.029 32.8192 131.271 34.1944 131.611 34.6528C132.022 34.8764 132.539 35.5695 131.001 37.4031C129.78 39.0019 127.878 43.5857 126.54 47.9348C125.201 52.2838 125.812 53.4354 126.786 53.4354C127.761 53.4354 129.275 53.2119 136.331 44.5025C136.589 42.9038 136.906 41.0701 137.469 39.2366C139.101 33.9707 140.792 28.4701 142.376 24.1211C140.533 24.5795 139.183 25.0379 137.281 25.7198C134.816 26.6366 135.767 24.3446 138.127 22.9695C139.312 22.2876 141.214 21.5943 143.363 20.9123C143.926 19.0788 144.419 17.4801 144.63 16.7868C145.546 13.8129 144.936 12.6614 148.634 12.4378C152.343 12.2142 153.541 13.8129 152.238 17.2452C152.167 17.4689 152.026 17.9273 151.568 18.6204C155.865 17.2452 159.587 15.4117 160.138 15.1881C160.69 14.9645 162.052 14.5061 160.256 17.9383C158.471 21.3707 156.147 21.8292 152.684 22.0639C151.709 22.0639 150.676 22.2876 149.948 22.2876C145.699 32.1373 138.361 52.7534 144.243 52.5187C148.364 52.5187 153.905 46.336 155.595 42.4454C155.771 41.0701 155.959 39.695 156.311 38.5547C157.309 33.7472 157.462 31.6788 157.438 30.9969C157.403 30.3148 157.696 29.3982 159.868 29.3982C162.052 29.3982 164.987 30.0801 164.305 33.0651C163.625 36.0391 157.931 49.7907 161.418 50.2491C164.189 50.7075 167.875 46.5819 170.692 40.6341C170.692 40.6341 171.902 35.1335 172.957 33.3C174.014 31.4664 175.564 31.9248 175.81 31.9248C176.292 31.9248 179.544 32.3832 178.428 34.4404C177.524 35.8154 174.483 44.0553 172.124 50.931C186.294 44.29 208.904 38.5658 238.852 47.4988C238.617 47.4988 239.545 48.4156 236.973 48.8738ZM61.8315 42.4566C61.8315 42.4566 65.4004 41.0813 68.0535 38.7894C71.3288 36.0391 72.3149 32.8304 70.8358 32.1485C69.7675 31.6901 67.3726 32.372 65.0716 35.1223C63.0054 37.8726 61.8315 42.4566 61.8315 42.4566ZM165.057 57.3485C165.057 57.3485 155.536 63.0728 152.789 70.4069C150.254 77.048 151.721 79.3399 153.353 79.5634C154.973 79.7871 157.52 77.048 160.444 69.9485C163.367 62.8379 165.057 57.3485 165.057 57.3485Z" fill="white"/>
</svg>
