<svg width="490" height="225" viewBox="0 0 490 225" fill="none" xmlns="http://www.w3.org/2000/svg">
    <path d="M489.49 138.38C482.79 131.85 462.07 133.25 446.43 139.52C452.54 120.91 460.94 97.4001 463.24 93.7201C466.14 88.1101 457.69 86.8601 456.44 86.8601C455.8 86.8601 451.78 85.6101 449.03 90.6101C446.29 95.6101 443.15 110.6 443.15 110.6C435.84 126.81 426.26 138.06 419.07 136.81C410.02 135.56 424.8 98.0701 426.57 89.9601C428.34 81.8201 420.72 79.9601 415.05 79.9601C409.41 79.9601 408.65 82.4601 408.74 84.3201C408.8 86.1801 404.7 110.87 403.95 115.53C399.56 126.14 385.18 142.99 374.48 142.99C359.21 143.63 378.26 87.4301 389.29 60.5801C391.18 60.5801 393.86 59.9701 396.39 59.9701C405.38 59.3301 411.42 58.0801 416.05 48.7201C420.71 39.3601 417.18 40.6101 415.75 41.2201C414.32 41.8301 404.66 46.8301 393.5 50.5801C394.69 48.6901 395.05 47.4401 395.24 46.8301C398.62 37.4701 395.51 33.1101 385.88 33.7201C376.28 34.3301 377.86 37.4701 375.49 45.5801C374.94 47.4701 373.66 51.8301 372.2 56.8301C366.62 58.6901 361.68 60.5801 358.61 62.4401C352.48 66.1901 350.01 72.4401 356.42 69.9401C361.36 68.0801 364.86 66.8301 369.65 65.5801C365.54 77.4401 361.15 92.4301 356.91 106.79C355.45 111.79 354.62 116.79 353.95 121.15C335.63 144.89 331.7 145.5 329.17 145.5C326.64 145.5 325.06 142.36 328.53 130.5C332 118.64 336.94 106.15 340.11 101.79C344.1 96.7901 342.76 94.9001 341.69 94.2901C340.81 93.0401 334.98 89.2901 331.39 88.6801C327.79 88.0401 325.81 90.5401 321.97 99.2901C318.16 108.01 315.63 123 315.63 123C312.28 128 299.05 142.99 291.25 141.74C282.38 139.88 301.43 94.2801 303.35 89.9301C305.27 85.5701 298.26 83.6801 294.05 83.0701C289.84 82.4301 288.84 83.6801 287.22 84.9301C285.6 86.1801 282.01 100.54 280.06 109.28C279.33 111.78 278.51 116.78 277.47 122.39C271.77 131.14 259.98 145.49 252.17 144.24C243.91 142.38 253.6 118.03 254.33 115.53C254.88 113.67 253.54 111.78 248.69 111.17C243.81 110.56 242.02 112.42 241.65 113.67C241.28 114.92 239.09 122.42 239.09 122.42C228.7 134.28 223.91 135.53 223.91 135.53C223.91 135.53 213 140.53 218.79 118.68C225.22 96.8301 240.64 84.9701 249.73 86.2201C254.58 86.8601 254.91 89.9701 253.17 93.7201C251.43 97.4701 246.22 98.0801 246.22 98.0801C246.04 98.7201 243.63 106.83 251.19 106.83C259.36 106.83 262.19 99.3301 262.19 99.3301C268.77 81.2001 250.7 80.5901 250.7 80.5901C222.96 78.7301 206.51 106.83 203.12 116.19C201.6 119.33 200.5 123.08 199.83 127.44C189.62 138.69 181.05 144.29 171.79 143.69C156.89 143.08 160.6 121.84 160.6 121.84C199.58 111.23 203.61 82.4901 183.67 81.8801C161.21 81.2701 147.67 103.73 144.54 118.73C142.04 133.73 147.65 153.08 169.04 153.08C181.6 153.08 192.54 143.69 199.34 135.58C199.19 142.44 201.78 148.69 209.95 148.69C226.32 148.69 236.5 131.19 236.5 131.19C236.5 131.19 231.78 153.68 249.39 153.68C258.84 153.68 270.42 139.93 276.58 131.83C276.15 141.83 277.98 150.57 286.79 150.57C302.94 151.21 315.23 128.72 315.23 128.72C315.23 128.72 309.77 153.68 325.04 153.07C335.1 153.07 346.44 138.1 353.14 128.11C352.9 141.86 357.68 151.21 371.52 151.21C385.36 151.21 397.7 134.96 404.22 125.61C404.25 136.25 407.15 145.6 416.59 145.6C429.18 145.6 439.45 125.61 439.45 125.61C436.07 134.97 432.32 145.6 432.13 146.21C431.31 146.82 429.87 147.46 429.05 148.07C420.67 153.07 397.09 167.46 386.11 189.28C378.15 205.1 376.54 226.13 397.02 224.88C417.5 223.63 431.16 187.61 443.29 148.12C444.05 145.63 443.29 148.12 443.29 148.12C449.69 145.25 461.53 142.08 470.34 144.02C471.94 144.37 472.84 144.9 474.28 144.15C478.84 141.77 484.91 140.71 489.24 140.19C490.22 140.07 490.19 139.06 489.49 138.38ZM168.93 95.5801C174.9 88.0801 181.12 86.2201 183.9 87.4701C187.74 89.3301 185.18 98.0801 176.68 105.57C169.79 111.82 160.53 115.57 160.53 115.57C160.53 115.57 163.57 103.08 168.93 95.5801ZM416.54 190.52C408.95 209.87 402.34 217.34 398.13 216.73C393.89 216.12 390.08 209.87 396.67 191.77C403.8 171.78 428.52 156.17 428.52 156.17C428.52 156.17 424.13 171.14 416.54 190.52Z" fill="white"/>
    <path d="M17.9699 76.26C18.8799 73.12 16.2899 71.26 12.5099 71.26C8.72988 71.26 4.85988 73.76 3.94988 76.87C-7.45012 130.54 9.43988 148.04 9.43988 148.04C10.3699 149.2 11.9299 149.69 13.4599 149.29C16.1699 148.65 19.3099 145.78 18.6999 144.29C5.22988 117.43 17.9699 76.26 17.9699 76.26Z" fill="white"/>
    <path d="M15.8699 66.23C20.2599 66.23 25.1399 62.48 26.4499 58.12C27.7299 53.76 25.0499 50.01 20.6599 50.01C16.2699 50.01 11.5799 53.12 10.2699 57.51C8.79991 62.51 11.4499 66.23 15.8699 66.23Z" fill="white"/>
    <path d="M101.52 56.68C137.82 1.73004 98.2499 0.0600402 98.2499 0.0600402C98.2499 0.0600402 70.8499 -3.07996 45.8899 36.91C28.9999 64.37 22.7299 89.97 21.6899 99.97C21.7499 101.83 23.5499 102.55 25.8999 100.58C57.8599 73.74 86.1499 67.49 86.1499 67.49C66.4699 94.35 41.4699 107.47 31.7199 114.96C21.9699 122.46 23.3699 130.57 23.3699 130.57C26.0499 164.28 68.9399 161.78 68.9399 161.78C68.9399 161.78 121.39 163.03 141.24 110.58C161.25 57.51 102.16 56.68 101.52 56.68ZM34.7399 81.22C34.7399 81.22 57.5099 18.77 91.8599 17.52C119.9 16.27 92.8699 56.87 92.8699 56.87C92.8699 56.87 65.6999 59.37 34.7399 81.22ZM123.52 113.07C107.47 150.98 65.4299 148.03 65.4299 148.03C65.4299 148.03 38.0899 146.78 33.5499 128.04C33.5499 128.04 31.4199 122.4 38.7299 116.79C51.0999 106.82 75.5499 94.33 95.7599 66.23C95.7499 66.23 144 64.7 123.52 113.07Z" fill="white"/>
</svg>
