<svg width="121" height="109" viewBox="0 0 121 109" fill="none" xmlns="http://www.w3.org/2000/svg">
    <path d="M112.156 0.397351H8.84437C4.46233 0.397351 0.897351 3.96234 0.897351 8.34437V79.8676C0.897351 84.2496 4.46233 87.8146 8.84437 87.8146H51.5596V95.5133C51.5596 96.6104 52.4492 97.5 53.5464 97.5C54.6436 97.5 55.5331 96.6104 55.5331 95.5133V88.3113H65.4669V95.5133C65.4669 96.6104 66.3565 97.5 67.4536 97.5C68.5508 97.5 69.4404 96.6104 69.4404 95.5133V87.8146H112.156C116.538 87.8146 120.103 84.2496 120.103 79.8676V8.34437C120.103 3.96258 116.538 0.397351 112.156 0.397351ZM116.129 79.8676C116.129 82.0585 114.347 83.8411 112.156 83.8411H8.84437C6.65348 83.8411 4.87086 82.0585 4.87086 79.8676V8.34437C4.87086 6.15348 6.65348 4.37086 8.84437 4.37086H112.156C114.347 4.37086 116.129 6.15348 116.129 8.34437V79.8676ZM90.2117 106.782C89.8863 107.828 88.7745 108.415 87.7243 108.089C71.0256 102.894 49.8671 102.928 33.2757 108.089C32.228 108.415 31.1144 107.83 30.7883 106.782C30.4623 105.734 31.0474 104.621 32.0951 104.295C49.4599 98.8927 71.4426 98.8622 88.9049 104.295C89.9527 104.621 90.5375 105.735 90.2117 106.782ZM81.2137 37.466C80.8637 34.2536 78.1635 31.8315 74.9323 31.8315H72.4697V27.231C72.4697 20.5758 67.0553 15.1614 60.4002 15.1614C53.745 15.1614 48.3311 20.5756 48.3311 27.2307V31.8313H45.8685C42.6373 31.8313 39.9371 34.2536 39.5872 37.4657L36.4975 65.8465C36.0907 69.5831 39.0224 72.8491 42.7789 72.8491H78.0222C81.7809 72.8491 84.7101 69.5809 84.3036 65.8465L81.2137 37.466ZM78.0222 68.8756H42.7789C41.3802 68.8756 40.2962 67.6654 40.4477 66.2767L43.5373 37.8961C43.667 36.7038 44.6695 35.8048 45.8685 35.8048H48.3311V39.7331C48.3311 40.8303 49.2207 41.7199 50.3179 41.7199C51.4151 41.7199 52.3046 40.8303 52.3046 39.7331V27.2305C52.3046 22.7662 55.9364 19.1344 60.4004 19.1344C64.8647 19.1344 68.4964 22.7662 68.4964 27.2305V31.831H58.18C57.0828 31.831 56.1932 32.7206 56.1932 33.8178C56.1932 34.915 57.0828 35.8046 58.18 35.8046H68.4964V39.7329C68.4964 40.8301 69.386 41.7196 70.4832 41.7196C71.5804 41.7196 72.47 40.8301 72.47 39.7329V35.8046H74.9325C76.1315 35.8046 77.1339 36.7036 77.2637 37.8959L80.3534 66.2764C80.5049 67.6666 79.4191 68.8756 78.0222 68.8756Z" fill="#775DAA"/>
    <path fill-rule="evenodd" clip-rule="evenodd" d="M87.6062 108.469C70.9847 103.297 49.9085 103.331 33.3938 108.469C32.1367 108.859 30.8003 108.158 30.4089 106.9L30.7883 106.782C31.1144 107.83 32.228 108.415 33.2757 108.089C49.8671 102.928 71.0256 102.894 87.7243 108.089C88.7745 108.415 89.8863 107.828 90.2117 106.782L90.5911 106.9C90.2007 108.155 88.8663 108.86 87.6062 108.469ZM90.2117 106.782C90.5375 105.735 89.9527 104.621 88.9049 104.295C71.4426 98.8622 49.4599 98.8927 32.0951 104.295C31.0474 104.621 30.4623 105.734 30.7883 106.782L30.4089 106.9C30.0176 105.643 30.7198 104.307 31.977 103.916C49.4184 98.4895 71.4835 98.4588 89.023 103.916C90.2803 104.307 90.9821 105.643 90.5911 106.9L90.2117 106.782ZM39.1922 37.4227C39.564 34.009 42.4345 31.4339 45.8685 31.4339H47.9338V27.2307C47.9338 20.3561 53.5256 14.7641 60.4002 14.7641C67.2748 14.7641 72.8671 20.3564 72.8671 27.231V31.4342H74.9323C78.3663 31.4342 81.2368 34.009 81.6087 37.423L84.6986 65.8035C85.1307 69.7729 82.0175 73.2465 78.0222 73.2465H42.7789C38.786 73.2465 35.6701 69.7753 36.1025 65.8035L39.1922 37.4227ZM40.8427 66.3198C40.7168 67.4735 41.6168 68.4782 42.7789 68.4782H78.0222C79.1828 68.4782 80.0842 67.4744 79.9584 66.3195L80.3534 66.2764C80.5049 67.6666 79.4191 68.8756 78.0222 68.8756H42.7789C41.3802 68.8756 40.2962 67.6654 40.4477 66.2767L43.5373 37.8961C43.667 36.7038 44.6695 35.8048 45.8685 35.8048H48.3311V39.7331C48.3311 40.8303 49.2207 41.7199 50.3179 41.7199C51.4151 41.7199 52.3046 40.8303 52.3046 39.7331V27.2305C52.3046 22.7662 55.9364 19.1344 60.4004 19.1344C64.8647 19.1344 68.4964 22.7662 68.4964 27.2305V31.831H58.18C57.0828 31.831 56.1932 32.7206 56.1932 33.8178C56.1932 34.915 57.0828 35.8046 58.18 35.8046H68.4964V39.7329C68.4964 40.8301 69.386 41.7196 70.4832 41.7196C71.5804 41.7196 72.47 40.8301 72.47 39.7329V35.8046H74.9325C76.1315 35.8046 77.1339 36.7036 77.2637 37.8959L80.3534 66.2764L79.9584 66.3195L76.8687 37.9389C76.7608 36.9482 75.9287 36.2019 74.9325 36.2019H72.8673V39.7329C72.8673 41.0495 71.7998 42.117 70.4832 42.117C69.1666 42.117 68.0991 41.0495 68.0991 39.7329V36.2019H58.18C56.8633 36.2019 55.7959 35.1344 55.7959 33.8178C55.7959 32.5012 56.8633 31.4337 58.18 31.4337H68.0991V27.2305C68.0991 22.9857 64.6452 19.5318 60.4004 19.5318C56.1559 19.5318 52.702 22.9857 52.702 27.2305V39.7331C52.702 41.0498 51.6345 42.1172 50.3179 42.1172C49.0012 42.1172 47.9338 41.0498 47.9338 39.7331V36.2022H45.8685C44.8723 36.2022 44.0401 36.9485 43.9324 37.9391L40.8427 66.3198ZM8.84437 0H112.156C116.757 0 120.5 3.74314 120.5 8.34437V79.8676C120.5 84.4691 116.757 88.2119 112.156 88.2119H69.8378V95.5133C69.8378 96.8299 68.7703 97.8974 67.4536 97.8974C66.137 97.8974 65.0695 96.8299 65.0695 95.5133V88.7086H55.9305V95.5133C55.9305 96.8299 54.863 97.8974 53.5464 97.8974C52.2297 97.8974 51.1623 96.8299 51.1623 95.5133V88.2119H8.84437C4.24288 88.2119 0.5 84.4691 0.5 79.8676V8.34437C0.5 3.74288 4.24288 0 8.84437 0ZM112.156 83.4437C114.127 83.4437 115.732 81.839 115.732 79.8676V8.34437C115.732 6.37293 114.127 4.76821 112.156 4.76821H8.84437C6.87293 4.76821 5.26821 6.37293 5.26821 8.34437V79.8676C5.26821 81.839 6.87293 83.4437 8.84437 83.4437H112.156ZM8.84437 0.397351H112.156C116.538 0.397351 120.103 3.96258 120.103 8.34437V79.8676C120.103 84.2496 116.538 87.8146 112.156 87.8146H69.4404V95.5133C69.4404 96.6104 68.5508 97.5 67.4536 97.5C66.3565 97.5 65.4669 96.6104 65.4669 95.5133V88.3113H55.5331V95.5133C55.5331 96.6104 54.6436 97.5 53.5464 97.5C52.4492 97.5 51.5596 96.6104 51.5596 95.5133V87.8146H8.84437C4.46233 87.8146 0.897351 84.2496 0.897351 79.8676V8.34437C0.897351 3.96234 4.46233 0.397351 8.84437 0.397351ZM112.156 83.8411C114.347 83.8411 116.129 82.0585 116.129 79.8676V8.34437C116.129 6.15348 114.347 4.37086 112.156 4.37086H8.84437C6.65348 4.37086 4.87086 6.15348 4.87086 8.34437V79.8676C4.87086 82.0585 6.65348 83.8411 8.84437 83.8411H112.156ZM74.9323 31.8315C78.1635 31.8315 80.8637 34.2536 81.2137 37.466L84.3036 65.8465C84.7101 69.5809 81.7809 72.8491 78.0222 72.8491H42.7789C39.0224 72.8491 36.0907 69.5831 36.4975 65.8465L39.5872 37.4657C39.9371 34.2536 42.6373 31.8313 45.8685 31.8313H48.3311V27.2307C48.3311 20.5756 53.745 15.1614 60.4002 15.1614C67.0553 15.1614 72.4697 20.5758 72.4697 27.231V31.8315H74.9323Z" fill="#775DAA"/>
</svg>
