<svg width="120" height="84" viewBox="0 0 120 84" fill="none" xmlns="http://www.w3.org/2000/svg">
    <path d="M119.985 7.9704C119.983 4.04274 116.786 0.846099 112.858 0.844458L18.1448 0.835083C16.2427 0.835083 14.4544 1.57571 13.1095 2.92055C11.764 4.2661 11.0234 6.05532 11.0241 7.95868L11.0252 12.037L7.12078 12.0366C5.21859 12.0366 3.43008 12.7772 2.08547 14.122C0.739922 15.4681 -0.000702625 17.2573 5.00183e-07 19.1606L0.0154693 76.0299C0.0168755 79.9575 3.21352 83.1542 7.14211 83.1558L101.855 83.1649C103.757 83.1649 105.546 82.4243 106.89 81.0795C108.236 79.7339 108.977 77.9447 108.976 76.0413L108.975 71.963L112.879 71.9632C114.781 71.9632 116.57 71.2226 117.915 69.8777C119.26 68.5322 120.001 66.743 120 64.8396L119.985 7.9704ZM103.576 77.7649C103.116 78.2245 102.505 78.4774 101.855 78.4774C101.854 78.4772 101.854 78.4772 101.853 78.4774L7.14328 78.4683C5.7982 78.4676 4.70344 77.3731 4.70297 76.0282L4.6875 19.159C4.68727 18.5084 4.94039 17.8967 5.4 17.4368C5.85961 16.9772 6.47063 16.7243 7.12172 16.7243L101.832 16.7334C103.177 16.7341 104.272 17.8289 104.273 19.1735L104.288 76.0427C104.288 76.6934 104.036 77.3051 103.576 77.7649ZM114.6 66.5632C114.14 67.0228 113.529 67.2757 112.878 67.2757L108.973 67.2755L108.96 19.1721C108.959 15.2445 105.762 12.0476 101.834 12.0462L15.7127 12.0377L15.7116 7.95727C15.7113 7.30665 15.9645 6.69493 16.4241 6.23508C16.8837 5.77547 17.4947 5.52258 18.1458 5.52258L112.856 5.53172C114.202 5.53243 115.296 6.62696 115.297 7.9718L115.312 64.841C115.313 65.4916 115.06 66.1034 114.6 66.5632Z" fill="#775DAA"/>
    <path d="M96.1282 28.383C94.1963 28.3823 92.6241 26.8099 92.6231 24.878C92.6227 23.584 91.5734 22.5352 90.2794 22.5352H18.6855C18.0637 22.5352 17.4675 22.7822 17.028 23.2221C16.5886 23.6618 16.3416 24.258 16.3418 24.8798C16.3423 25.8148 15.9785 26.6937 15.3176 27.3544C14.6571 28.0148 13.7789 28.3786 12.8442 28.3786C12.8435 28.3784 12.843 28.3784 12.8421 28.3786C12.2205 28.3786 11.6245 28.6256 11.1851 29.0651C10.7454 29.5048 10.4984 30.101 10.4984 30.7228L10.5047 64.4754C10.5049 65.7694 11.5538 66.8182 12.8477 66.8187C14.7797 66.8194 16.3519 68.3918 16.3528 70.3238C16.3533 71.6177 17.4026 72.6666 18.6966 72.6666H90.2906C90.9124 72.6666 91.5087 72.4195 91.9481 71.9796C92.3878 71.5399 92.6346 70.9437 92.6344 70.3219C92.6341 69.387 92.9977 68.508 93.6584 67.8471C94.3188 67.1869 95.197 66.8231 96.1317 66.8231C96.1324 66.8229 96.1327 66.8229 96.1338 66.8231C96.7554 66.8231 97.3514 66.5761 97.7909 66.1367C98.2305 65.6972 98.4776 65.1007 98.4776 64.4789L98.4713 30.7263C98.471 29.4326 97.4222 28.3835 96.1282 28.383ZM90.3436 64.5328C89.3665 65.5099 88.6671 66.6905 88.2844 67.9791H20.6979C19.909 65.3445 17.8266 63.2623 15.192 62.4734L15.1863 32.7281C16.4747 32.3454 17.6555 31.646 18.6323 30.6691C19.6095 29.692 20.3091 28.5115 20.6916 27.2229H88.2783C89.0672 29.8575 91.1496 31.9397 93.7842 32.7286L93.7898 62.4738C92.5013 62.8561 91.3205 63.5559 90.3436 64.5328Z" fill="#775DAA"/>
    <path d="M57.4852 45.6877C57.1439 45.567 56.8184 45.4509 56.5085 45.3394V38.4727C57.2672 38.7333 57.7952 39.1327 58.0631 39.5145C58.8068 40.5741 60.2684 40.8305 61.328 40.0866C62.3876 39.3431 62.6438 37.8813 61.9001 36.8217C60.8524 35.3288 58.9664 34.0784 56.5085 33.6513V33.289C56.5085 31.9945 55.4592 30.9452 54.1648 30.9452C52.8703 30.9452 51.821 31.9945 51.821 33.289V33.8255C51.513 33.8963 51.2009 33.9788 50.8842 34.0741C48.0527 34.9273 45.9155 37.676 45.687 40.7588C45.461 43.8068 47.082 46.4545 50.0231 47.8416C50.4216 48.0293 51.0382 48.2864 51.821 48.593V56.8702C50.7666 56.5317 49.8082 55.9884 49.1759 55.2035C48.3637 54.1957 46.8881 54.0366 45.8803 54.8484C44.8723 55.6605 44.7134 57.1359 45.5252 58.1442C47.138 60.1462 49.5052 61.2302 51.8208 61.703V61.913C51.8208 63.2072 52.8701 64.2567 54.1645 64.2567C55.459 64.2567 56.5083 63.2072 56.5083 61.913V61.8802C61.402 61.2173 63.5435 58.0034 63.9082 55.1318C64.4215 51.0893 61.7801 47.2059 57.4852 45.6877ZM50.3616 41.1056C50.4347 40.1194 51.0342 39.1774 51.8208 38.7398V43.5007C50.7757 42.9443 50.2849 42.1395 50.3616 41.1056ZM59.2582 54.5409C59.0944 55.8316 58.1093 56.7401 56.5085 57.1177V50.3459C58.6329 51.3347 59.4333 53.1607 59.2582 54.5409Z" fill="#775DAA"/>
    <path d="M83.3742 45.4031H75.7146C74.4202 45.4031 73.3709 46.4526 73.3709 47.7469C73.3709 49.0411 74.4202 50.0906 75.7146 50.0906H83.3742C84.6687 50.0906 85.718 49.0411 85.718 47.7469C85.718 46.4524 84.6687 45.4031 83.3742 45.4031Z" fill="#775DAA"/>
    <path d="M33.5871 45.4031H25.9275C24.6331 45.4031 23.5838 46.4526 23.5838 47.7469C23.5838 49.0411 24.6331 50.0906 25.9275 50.0906H33.5871C34.8816 50.0906 35.9309 49.0411 35.9309 47.7469C35.9309 46.4524 34.8816 45.4031 33.5871 45.4031Z" fill="#775DAA"/>
</svg>
