<svg width="120" height="120" viewBox="0 0 120 120" fill="none" xmlns="http://www.w3.org/2000/svg">
    <path d="M87.5 120C69.58 120 55 105.42 55 87.5C55 69.58 69.58 55 87.5 55C105.42 55 120 69.58 120 87.5C120 105.42 105.42 120 87.5 120ZM87.5 60C72.335 60 60 72.34 60 87.5C60 102.66 72.335 115 87.5 115C102.665 115 115 102.66 115 87.5C115 72.34 102.665 60 87.5 60Z" fill="#775DAA"/>
    <path d="M82.5 100C81.84 100 81.2 99.735 80.73 99.27L70.73 89.27C69.755 88.295 69.755 86.71 70.73 85.735C71.705 84.76 73.29 84.76 74.265 85.735L82.375 93.845L98.115 75.855C99.025 74.81 100.605 74.71 101.645 75.62C102.685 76.53 102.79 78.105 101.88 79.145L84.38 99.145C83.925 99.665 83.27 99.975 82.58 100C82.555 100 82.525 100 82.5 100Z" fill="#775DAA"/>
    <path d="M47.5 105H12.5C5.61 105 0 99.395 0 92.5V27.5C0 20.605 5.61 15 12.5 15H22.5C23.88 15 25 16.12 25 17.5C25 18.88 23.88 20 22.5 20H12.5C8.365 20 5 23.365 5 27.5V92.5C5 96.635 8.365 100 12.5 100H47.5C48.88 100 50 101.12 50 102.5C50 103.88 48.88 105 47.5 105Z" fill="#775DAA"/>
    <path d="M82.5 45C81.12 45 80 43.88 80 42.5V27.5C80 23.365 76.635 20 72.5 20H62.5C61.12 20 60 18.88 60 17.5C60 16.12 61.12 15 62.5 15H72.5C79.39 15 85 20.605 85 27.5V42.5C85 43.88 83.88 45 82.5 45Z" fill="#775DAA"/>
    <path d="M57.5 30H27.5C23.365 30 20 26.635 20 22.5V12.5C20 11.12 21.12 10 22.5 10H30.25C31.415 4.3 36.46 0 42.5 0C48.54 0 53.585 4.3 54.75 10H62.5C63.88 10 65 11.12 65 12.5V22.5C65 26.635 61.635 30 57.5 30ZM25 15V22.5C25 23.875 26.12 25 27.5 25H57.5C58.88 25 60 23.875 60 22.5V15H52.5C51.12 15 50 13.88 50 12.5C50 8.365 46.635 5 42.5 5C38.365 5 35 8.365 35 12.5C35 13.88 33.88 15 32.5 15H25Z" fill="#775DAA"/>
    <path d="M67.5 45H17.5C16.12 45 15 43.88 15 42.5C15 41.12 16.12 40 17.5 40H67.5C68.88 40 70 41.12 70 42.5C70 43.88 68.88 45 67.5 45Z" fill="#775DAA"/>
    <path d="M52.5 60H17.5C16.12 60 15 58.88 15 57.5C15 56.12 16.12 55 17.5 55H52.5C53.88 55 55 56.12 55 57.5C55 58.88 53.88 60 52.5 60Z" fill="#775DAA"/>
    <path d="M42.5 75H17.5C16.12 75 15 73.88 15 72.5C15 71.12 16.12 70 17.5 70H42.5C43.88 70 45 71.12 45 72.5C45 73.88 43.88 75 42.5 75Z" fill="#775DAA"/>
</svg>
