<svg width="24" height="14" viewBox="0 0 24 14" fill="none" xmlns="http://www.w3.org/2000/svg">
    <path d="M23.7861 12.214C23.7216 12.106 23.3225 11.239 21.4024 9.45683C19.3923 7.59069 19.6623 7.89371 22.0834 4.66697C23.5581 2.70183 24.1476 1.50174 23.9631 0.988701C23.7876 0.499664 22.703 0.628674 22.703 0.628674L19.0967 0.649675C19.0967 0.649675 18.8297 0.613673 18.6302 0.732181C18.4367 0.84919 18.3122 1.11921 18.3122 1.11921C18.3122 1.11921 17.7406 2.64032 16.9786 3.93342C15.372 6.66212 14.7284 6.80613 14.4659 6.63662C13.8553 6.24209 14.0084 5.0495 14.0084 4.20344C14.0084 1.55874 14.4089 0.456161 13.2268 0.17114C12.8338 0.0766327 12.5458 0.0136281 11.5422 0.0031273C10.2551 -0.0103737 9.1645 0.00762764 8.54796 0.30915C8.13693 0.510165 7.82041 0.958699 8.01392 0.984201C8.25244 1.0157 8.79248 1.12971 9.079 1.51974C9.44952 2.02228 9.43602 3.15336 9.43602 3.15336C9.43602 3.15336 9.64904 6.26609 8.93949 6.65312C8.45195 6.91864 7.7844 6.3771 6.3518 3.90042C5.61824 2.63282 5.0632 1.23022 5.0632 1.23022C5.0632 1.23022 4.9567 0.969199 4.76618 0.829689C4.53517 0.660176 4.21114 0.606172 4.21114 0.606172L0.781892 0.627174C0.781892 0.627174 0.267354 0.642175 0.0783406 0.865692C-0.0896717 1.06521 0.0648396 1.47624 0.0648396 1.47624C0.0648396 1.47624 2.75004 7.7572 5.78926 10.9239C8.57796 13.8267 11.7432 13.6361 11.7432 13.6361H13.1773C13.1773 13.6361 13.6108 13.5881 13.8313 13.3496C14.0354 13.1306 14.0279 12.7196 14.0279 12.7196C14.0279 12.7196 13.9994 10.7949 14.8934 10.5114C15.774 10.2324 16.9051 12.3715 18.1037 13.1951C19.0097 13.8177 19.6983 13.6811 19.6983 13.6811L22.904 13.6361C22.904 13.6361 24.5811 13.5326 23.7861 12.214Z" fill="#C4C4C4"/>
</svg>
